<svg id="SvgjsSvg1012" width="288" height="288" xmlns="http://www.w3.org/2000/svg" version="1.1" xmlns:xlink="http://www.w3.org/1999/xlink" xmlns:svgjs="http://svgjs.com/svgjs"><defs id="SvgjsDefs1013"></defs><g id="SvgjsG1014"><svg xmlns="http://www.w3.org/2000/svg" viewBox="0 0 1024 1024" width="288" height="288"><path fill="#5d5d5a" d="M0 0h1024v1024H0z" class="color656872 svgShape"></path><path fill="#fff4e3" d="M596.673 712H427.337v-51.315l7.51-2.252c22.434-6.723 41.272-18.02 41.915-22.904V376.535h-61.884l-43.482 38.899H312V312h400v103.434h-59.395l-43.473-38.899h-61.894V635.57c.643 4.842 19.49 16.14 41.926 22.863l7.503 2.252.006 51.315zM448.39 690.947h127.23v-14.75c-19.104-6.517-49.435-20.118-49.435-40.627V355.483h90.99l43.473 38.897h30.3v-61.327H333.052v61.327h30.303l43.483-38.897h90.975V635.57c0 20.51-30.325 34.11-49.424 40.626v14.751z" class="colorFFF svgShape"></path></svg></g></svg>